<svg width="448" height="512" xmlns="http://www.w3.org/2000/svg" xmlns:xlink="http://www.w3.org/1999/xlink" xml:space="preserve" overflow="hidden"><defs><clipPath id="clip0"><rect x="416" y="104" width="448" height="512"/></clipPath></defs><g clip-path="url(#clip0)" transform="translate(-416 -104)"><path d="M640 360C710.692 360 768 302.692 768 232 768 161.308 710.692 104 640 104 569.308 104 512 161.308 512 232 512 302.692 569.308 360 640 360ZM594.3 408C495.8 408 416 487.8 416 586.3 416 602.7 429.3 616 445.7 616L834.3 616C850.7 616 864 602.7 864 586.3 864 487.8 784.2 408 685.7 408L594.3 408Z" fill="#C9D1CE"/></g></svg>